<svg xmlns="http://www.w3.org/2000/svg" width="11" height="8" viewBox="0 0 11 8">
    <path fill="#6B737E" fill-rule="nonzero" d="M11 6.667c0 .233-.068.45-.176.641L7.35 3.54 10.786.625c.133.206.214.447.214.708v5.334zM5.5 4.224L10.28.168A1.39 1.39 0 0 0 9.625 0h-8.25C1.136 0 .915.064.72.168L5.5 4.224zm1.333-.245l-1.107.939a.35.35 0 0 1-.452 0l-1.107-.94L.65 7.796c.21.128.458.205.725.205h8.25c.267 0 .514-.077.725-.205L6.833 3.979zM.214.625A1.295 1.295 0 0 0 0 1.333v5.334c0 .233.068.45.177.641l3.472-3.769L.214.625z"/>
</svg>
