<svg xmlns="http://www.w3.org/2000/svg" width="15" height="11" viewBox="0 0 15 11">
    <g fill="#FFF" fill-rule="nonzero">
        <path d="M1.44 3.39c.19.126.761.497 1.716 1.114A421.64 421.64 0 0 1 5.349 5.93c.056.036.174.116.355.238.182.123.332.222.452.297.12.076.265.16.436.254.17.094.33.164.481.21.15.048.29.071.419.071h.016c.129 0 .268-.023.419-.07.15-.047.311-.117.481-.211.17-.094.316-.178.436-.254.12-.075.27-.174.452-.297.18-.122.3-.202.355-.238l3.918-2.54a3.852 3.852 0 0 0 1.02-.96c.274-.375.411-.768.411-1.18a1.16 1.16 0 0 0-.398-.883A1.341 1.341 0 0 0 13.661 0H1.339C.91 0 .58.135.347.406.116.677 0 1.016 0 1.422c0 .328.154.684.46 1.066.307.383.634.684.98.903z"/>
        <path d="M14.163 3.73a173.958 173.958 0 0 0-4.169 2.893c-.318.234-.576.418-.774.549a4.775 4.775 0 0 1-.79.402c-.33.137-.637.206-.921.206h-.017c-.285 0-.592-.069-.921-.206a4.777 4.777 0 0 1-.791-.402 19.824 19.824 0 0 1-.774-.55C4.252 6.07 2.866 5.106.846 3.73A4.436 4.436 0 0 1 0 3v6.658c0 .37.131.685.393.948.263.263.578.394.946.394h12.322c.368 0 .683-.131.946-.394.262-.263.393-.579.393-.948V3c-.24.268-.519.512-.837.73z"/>
    </g>
</svg>
