<svg xmlns="http://www.w3.org/2000/svg" width="14" height="14" viewBox="0 0 14 14">
    <path fill="#4C6CE4" fill-rule="nonzero" d="M12.113 0H1.887A1.887 1.887 0 0 0 0 1.887v10.226C0 13.155.845 14 1.887 14H6.93l.009-5.003h-1.3a.307.307 0 0 1-.306-.305l-.007-1.613c0-.17.137-.308.307-.308H6.93V5.213c0-1.808 1.105-2.793 2.718-2.793h1.324c.169 0 .306.137.306.307v1.36c0 .169-.137.306-.306.306h-.813c-.877 0-1.047.417-1.047 1.03V6.77h1.928c.184 0 .326.16.304.343l-.19 1.613a.307.307 0 0 1-.305.27H9.12L9.112 14h3.001A1.887 1.887 0 0 0 14 12.114V1.887A1.887 1.887 0 0 0 12.113 0z"/>
</svg>
