<svg xmlns="http://www.w3.org/2000/svg" width="11" height="10" viewBox="0 0 11 10">
    <g fill="#6B737E" fill-rule="nonzero">
        <path d="M10.607 5.553c.262-.273.393-.596.393-.97 0-.338-.136-.631-.407-.879a1.383 1.383 0 0 0-.964-.37H7.651a1.054 1.054 0 0 1 .136-.3 5.202 5.202 0 0 0 .268-.482c.044-.096.09-.226.135-.39a1.86 1.86 0 0 0 .068-.495 2.561 2.561 0 0 0-.04-.547 1.525 1.525 0 0 0-.086-.326 1.476 1.476 0 0 0-.17-.293.96.96 0 0 0-.287-.263 1.647 1.647 0 0 0-.428-.17A2.329 2.329 0 0 0 6.657 0a.461.461 0 0 0-.321.124 1.133 1.133 0 0 0-.243.325c-.067.13-.113.243-.14.339a5.815 5.815 0 0 0-.089.397c-.043.182-.075.313-.096.394-.022.08-.063.185-.125.315a.994.994 0 0 1-.222.313 9.919 9.919 0 0 0-.721.781c-.233.278-.474.54-.721.788-.248.247-.43.375-.543.384a.488.488 0 0 0-.307.134.376.376 0 0 0-.129.283V8.75c0 .113.045.21.136.29.09.08.197.122.321.127.167.004.543.1 1.129.286.366.113.653.199.86.257.207.059.497.122.868.189S7.028 10 7.342 10h.922c.633-.009 1.102-.178 1.407-.508.276-.3.393-.692.35-1.178.186-.16.314-.365.386-.612.08-.265.08-.519 0-.762.219-.264.321-.562.307-.892 0-.139-.035-.304-.107-.495zM1.692 4H.308a.285.285 0 0 0-.217.099.334.334 0 0 0-.091.234v3.334c0 .09.03.168.091.234S.224 8 .308 8h1.384a.285.285 0 0 0 .217-.099A.334.334 0 0 0 2 7.667V4.333c0-.09-.03-.168-.091-.234A.285.285 0 0 0 1.692 4zM1.14 7.237a.288.288 0 0 1-.216.096.286.286 0 0 1-.219-.096A.336.336 0 0 1 .615 7c0-.09.03-.168.09-.234a.283.283 0 0 1 .218-.1c.083 0 .156.034.216.1.061.066.092.144.092.234 0 .094-.03.173-.092.237z"/>
    </g>
</svg>
