<svg xmlns="http://www.w3.org/2000/svg" width="11" height="11" viewBox="0 0 11 11">
    <g fill="#6B737E" fill-rule="nonzero">
        <path d="M5.5 6C6.88 6 8 4.657 8 3 8 .702 6.88 0 5.5 0S3 .702 3 3c0 1.657 1.12 3 2.5 3z"/>
        <path d="M10.946 10.125L9.702 7.32a.625.625 0 0 0-.281-.3L7.489 6.014a.124.124 0 0 0-.132.011 3.058 3.058 0 0 1-1.857.632c-.669 0-1.31-.218-1.857-.632a.125.125 0 0 0-.133-.011L1.58 7.02a.625.625 0 0 0-.282.3L.054 10.125A.62.62 0 0 0 .622 11h9.756a.62.62 0 0 0 .568-.875z"/>
    </g>
</svg>
