<svg xmlns="http://www.w3.org/2000/svg" width="17" height="15" viewBox="0 0 17 15">
    <path fill="#00ABFF" fill-rule="nonzero" d="M.3 7.192l3.917 1.482 1.517 4.942a.459.459 0 0 0 .732.223l2.183-1.804a.645.645 0 0 1 .795-.022l3.938 2.897c.27.2.655.05.723-.283L16.99.564a.464.464 0 0 0-.618-.532L.296 6.317a.47.47 0 0 0 .004.875zm5.19.693l7.655-4.778c.137-.086.279.103.16.214L6.989 9.273c-.222.21-.366.49-.406.794l-.215 1.616c-.029.216-.328.237-.387.029l-.828-2.948a.786.786 0 0 1 .337-.879z"/>
</svg>
